# xmcd CD database file
#
# Track frame offsets:
#	150
#	18927
#	41967
#	60652
#
# Disc length: 1115 seconds
#
# Revision: 0
# Processed by: cddbd v1.5PL3 Copyright (c) Steve Scherf et al.
# Submitted via: CDex 1.51
#
DISCID=2e045904
DTITLE=嘉陽愛子 - 愛してね　もっと
DYEAR=2004
DGENRE=JPop
TTITLE0=愛してね もっと
TTITLE1=Eyes
TTITLE2=愛してね もっと (Instrumental)
TTITLE3=Eyes (Instrumental)
EXTD=YEAR: 2004
EXTT0=
EXTT1=
EXTT2=
EXTT3=
PLAYORDER=
